<svg width="64" height="64" viewBox="0 0 64 64" fill="none" xmlns="http://www.w3.org/2000/svg">
<circle cx="32" cy="32" r="32" fill="#FF6F61"/>
<path d="M9.19 43.69L11.885 43.34V22.9L9.33 22.41V19.995H14.72C15.1633 19.995 15.6417 19.9833 16.155 19.96C16.6917 19.9367 17.1 19.9133 17.38 19.89C18.64 19.7967 19.7133 19.75 20.6 19.75C23.0967 19.75 25.08 19.995 26.55 20.485C28.02 20.9517 29.0817 21.6983 29.735 22.725C30.4117 23.7283 30.75 25.0583 30.75 26.715C30.75 28.3017 30.33 29.7833 29.49 31.16C28.65 32.5367 27.4133 33.4817 25.78 33.995C26.8533 34.3917 27.7517 35.1383 28.475 36.235C29.2217 37.3083 29.9917 38.685 30.785 40.365C31.2517 41.345 31.625 42.08 31.905 42.57C32.185 43.0367 32.4767 43.305 32.78 43.375L33.795 43.69V46H27.145C26.795 46 26.4333 45.6267 26.06 44.88C25.6867 44.1333 25.2083 42.9667 24.625 41.38C23.9017 39.4433 23.2717 37.95 22.735 36.9C22.2217 35.8267 21.65 35.1733 21.02 34.94H17.87V43.34L20.985 43.69V46H9.19V43.69ZM20.565 32.665C21.7783 32.665 22.7233 32.1983 23.4 31.265C24.0767 30.3083 24.415 28.8733 24.415 26.96C24.415 25.28 24.0767 24.055 23.4 23.285C22.7467 22.4917 21.6383 22.095 20.075 22.095C19.235 22.095 18.5 22.1533 17.87 22.27V32.56C18.1733 32.63 18.675 32.665 19.375 32.665C20.075 32.665 20.4717 32.665 20.565 32.665ZM44.1356 46.385C42.8523 46.385 41.6623 46.28 40.5656 46.07C39.4923 45.86 38.3606 45.58 37.1706 45.23C36.4006 44.9967 35.8406 44.8683 35.4906 44.845L35.8056 38.3H39.0606L39.9356 42.78C40.1923 43.0833 40.6589 43.3517 41.3356 43.585C42.0356 43.8183 42.8639 43.935 43.8206 43.935C45.2439 43.935 46.3056 43.62 47.0056 42.99C47.7289 42.36 48.0906 41.4967 48.0906 40.4C48.0906 39.63 47.8573 38.965 47.3906 38.405C46.9473 37.8217 46.3173 37.2967 45.5006 36.83C44.7073 36.34 43.6106 35.78 42.2106 35.15C40.3673 34.31 38.8039 33.2483 37.5206 31.965C36.2606 30.6583 35.6306 28.9433 35.6306 26.82C35.6306 25.5133 35.9689 24.3233 36.6456 23.25C37.3223 22.1767 38.3489 21.3133 39.7256 20.66C41.1023 20.0067 42.8173 19.68 44.8706 19.68C46.1073 19.68 47.1806 19.7617 48.0906 19.925C49.0239 20.0883 50.0156 20.31 51.0656 20.59C51.6256 20.7767 52.0573 20.8817 52.3606 20.905L52.1506 27.135H48.9656L48.1606 22.83C47.9973 22.62 47.6239 22.4333 47.0406 22.27C46.4806 22.0833 45.8506 21.99 45.1506 21.99C43.8673 21.99 42.8989 22.2933 42.2456 22.9C41.6156 23.5067 41.3006 24.2883 41.3006 25.245C41.3006 26.085 41.5689 26.82 42.1056 27.45C42.6423 28.08 43.2839 28.6167 44.0306 29.06C44.8006 29.48 45.9673 30.075 47.5306 30.845C48.7673 31.4517 49.8406 32.07 50.7506 32.7C51.6839 33.3067 52.4773 34.1 53.1306 35.08C53.7839 36.06 54.1106 37.2033 54.1106 38.51C54.1106 39.7933 53.7956 41.03 53.1656 42.22C52.5589 43.41 51.5089 44.4017 50.0156 45.195C48.5223 45.9883 46.5623 46.385 44.1356 46.385Z" fill="white"/>
</svg>
